<?xml version="1.0" encoding="UTF-8"?>
<svg id="Capa_1" data-name="Capa 1" xmlns="http://www.w3.org/2000/svg" viewBox="0 0 150.16 150.16">
  <defs>
    <style>
      .cls-1 {
        fill: rgb(209, 45, 80);
      }
    </style>
  </defs>
  <path class="cls-1" d="m132.94,0H17.21C7.71,0,0,7.71,0,17.21v115.73c0,9.51,7.71,17.21,17.21,17.21h115.73c9.51,0,17.21-7.71,17.21-17.21V17.21c0-9.51-7.71-17.21-17.21-17.21Zm-57.86,18.76l21.42,21.42-21.42,21.42-21.42-21.42,21.42-21.42Zm35.2,77.44l-35.2,35.2-35.2-35.2h0c-5.02-4.93-7.97-11.96-7.4-19.68.87-11.78,10.16-21.4,21.8-22.81l21.64,21.64,21.41-21.41c10.95,2,19.51,11.3,20.34,22.58.57,7.71-2.38,14.75-7.4,19.67h0Z"/>
</svg>